<?xml version="1.0" encoding="UTF-8"?>
<svg width="140px" height="25px" viewBox="0 0 140 25" version="1.1" xmlns="http://www.w3.org/2000/svg" xmlns:xlink="http://www.w3.org/1999/xlink">
    <!-- Generator: Sketch 48 (47235) - http://www.bohemiancoding.com/sketch -->
    <title>Contact Number</title>
    <desc>Created with Sketch.</desc>
    <defs>
        <polygon id="path-1" points="3.43127082e-17 20.9992 3.43127082e-17 0.2832 20.4267887 0.2832 20.4267887 20.9992"></polygon>
        <polygon id="path-3" points="0.537816901 21 17.966831 21 17.966831 0.2834 0.537816901 0.2834 0.537816901 21"></polygon>
        <polygon id="path-5" points="27.3414085 3.2989 27.3414085 0.567378449 0.417585806 0.567378449 0.417585806 3.2989 27.3414085 3.2989"></polygon>
        <polygon id="path-7" points="27.3414085 2.8575 27.3414085 0.12559377 0.417585806 0.12559377 0.417585806 2.8575 27.3414085 2.8575"></polygon>
        <polygon id="path-9" points="27.3414085 3.4151 27.3414085 0.685383165 0.417585806 0.685383165 0.417585806 3.4151 27.3414085 3.4151"></polygon>
    </defs>
    <g id="Home" stroke="none" stroke-width="1" fill="none" fill-rule="evenodd" transform="translate(-250.000000, -30.000000)">
        <g id="Contact-Number" transform="translate(250.000000, 30.000000)">
            <g id="Group-3" transform="translate(0.000000, 3.343000)">
                <mask id="mask-2" fill="white">
                    <use xlink:href="#path-1"></use>
                </mask>
                <g id="Clip-2"></g>
                <path d="M15.3976338,5.4102 C13.9650986,3.9562 12.245662,3.2432 10.2136901,3.2432 C8.20735211,3.2432 6.48791549,3.9562 5.05439437,5.4102 C3.56960563,6.9162 2.86664789,8.6602 2.91890141,10.6942 C2.91890141,12.7562 3.62185915,14.5002 5.05439437,15.9002 C6.43566197,17.3532 8.15509859,18.0672 10.2136901,18.0672 C12.245662,18.0672 13.9650986,17.3532 15.3976338,15.9002 C16.8311549,14.4472 17.5350986,12.7022 17.5350986,10.6682 C17.5350986,8.6072 16.8311549,6.8632 15.3976338,5.4102 M20.4267887,10.6682 C20.4267887,13.5222 19.4359437,15.9532 17.4305915,17.9882 C15.5277746,19.8892 12.8963662,20.9992 10.2136901,20.9992 C7.37326761,20.9992 4.97749296,19.9962 2.99678873,17.9882 C0.990450704,15.9532 -0.000394366197,13.5222 -0.000394366197,10.6682 C-0.000394366197,7.7882 0.990450704,5.3562 2.99678873,3.3222 C5.02876056,1.2882 7.42650704,0.2832 10.2136901,0.2832 C13.0008732,0.2832 15.3976338,1.2882 17.4305915,3.3222 C19.4359437,5.3562 20.4267887,7.7882 20.4267887,10.6682" id="Fill-1" fill="#FFC20E" mask="url(#mask-2)"></path>
            </g>
            <path d="M35.0047324,13.0335 L40.189662,13.0335 C40.970507,13.0335 41.647831,12.7175 42.2216338,12.0555 C42.7944507,11.3955 43.0813521,10.6555 43.0813521,9.8365 C43.0813521,9.0165 42.7944507,8.2775 42.2482535,7.6435 C41.7010704,7.0085 41.0227606,6.6655 40.189662,6.6385 L35.0047324,6.6385 L35.0047324,13.0335 Z M41.6221972,15.6485 L47.1719155,24.1575 L43.8365634,24.1575 L38.4169859,15.8615 L35.0047324,15.8615 L35.0047324,24.1575 L32.1386761,24.1575 L32.1386761,3.8105 L40.189662,3.8105 C41.6744507,3.8105 42.9512113,4.4195 44.0455775,5.6355 C45.1399437,6.8245 45.6871268,8.2235 45.6871268,9.8365 C45.6871268,11.0255 45.3479718,12.1355 44.6962817,13.1655 C44.0455775,14.1955 43.1848732,14.9625 42.1437465,15.4375 L41.6221972,15.6485 Z" id="Fill-4" fill="#FFC20E"></path>
            <g id="Group-8" transform="translate(56.197183, 3.343000)">
                <mask id="mask-4" fill="white">
                    <use xlink:href="#path-3"></use>
                </mask>
                <g id="Clip-7"></g>
                <path d="M17.966831,17.9884 C15.9880986,19.9964 13.591338,21.0004 10.7509155,21.0004 C8.06725352,21.0004 5.43584507,19.8894 3.53401408,17.9884 C1.52866197,15.9544 0.537816901,13.5224 0.537816901,10.6684 C0.537816901,7.7884 1.52866197,5.3564 3.53401408,3.3224 C5.56598592,1.2874 7.96274648,0.2834 10.7509155,0.2834 C13.5380986,0.2834 15.9348592,1.2874 17.966831,3.3224 L15.9092254,5.4094 C14.4766901,3.9564 12.7572535,3.2434 10.7509155,3.2434 C8.71894366,3.2434 6.99852113,3.9564 5.56598592,5.4094 C4.13246479,6.8634 3.42950704,8.6064 3.42950704,10.6684 C3.42950704,12.7024 4.13246479,14.4464 5.56598592,15.9004 C6.99852113,17.3544 8.71894366,18.0664 10.7509155,18.0664 C12.809507,18.0664 14.5279577,17.3544 15.9092254,15.9004 L17.966831,17.9884 Z" id="Fill-6" fill="#FFC20E" mask="url(#mask-4)"></path>
            </g>
            <path d="M88.8859014,17.763 L97.1715352,17.763 L93.0020986,7.59 L88.8859014,17.763 Z M94.5657606,3.811 L102.850408,24.158 L99.7763239,24.158 L98.3181549,20.592 L87.7659014,20.592 L86.3323803,24.158 L83.232662,24.158 L91.4650563,3.811 L94.5657606,3.811 Z" id="Fill-9" fill="#FFC20E"></path>
            <path d="M133.792183,5.8792 C133.75669,5.6322 133.763592,5.3812 133.680775,5.1652 C133.505282,4.6982 133.150352,4.3742 132.739225,4.1102 C131.63993,3.4042 130.41838,3.0382 129.137676,2.9162 C128.637817,2.8682 128.315423,2.6542 128.044296,2.2762 C127.975282,2.1802 127.90331,2.0842 127.835282,1.9842 C127.52669,1.5222 127.235845,1.0462 126.903592,0.6022 C126.744859,0.3882 126.523028,0.2182 126.308099,0.0582 C126.14838,-0.0578 126.012324,0.0032 125.989648,0.2152 C125.967958,0.4002 125.96993,0.5852 125.952183,0.7712 C125.903873,1.3362 125.89007,1.9082 125.785563,2.4622 C125.702746,2.9042 125.399085,3.1902 124.954437,3.3452 C124.486127,3.5062 124.022746,3.7072 123.588944,3.9492 C121.922746,4.8812 120.714014,6.2082 120.17669,8.1012 C120.130352,8.2732 120.035704,8.4422 119.92331,8.5792 C119.49838,9.1062 119.07838,9.6292 118.881197,10.3792 C120.486268,8.7662 122.277676,7.5952 124.465423,7.0012 L125.599225,6.7632 C126.823732,6.5392 128.06007,6.4882 129.301338,6.6692 C129.563592,6.7082 129.711479,6.8032 129.831761,7.0522 C129.986549,7.3722 130.194577,7.6732 130.41838,7.9482 C130.583028,8.1512 130.823592,8.2632 131.083873,8.1072 C131.470352,7.8742 131.513732,6.8032 131.170634,6.5172 C131.138099,6.4892 131.106549,6.4632 131.075,6.4372 C133.521056,6.5662 133.792183,5.8792 133.792183,5.8792" id="Fill-11" fill="#FFC20E"></path>
            <g id="Group-15" transform="translate(112.394366, 20.343000)">
                <mask id="mask-6" fill="white">
                    <use xlink:href="#path-5"></use>
                </mask>
                <g id="Clip-14"></g>
                <path d="M0.958901408,3.2989 C0.663126761,3.2989 0.421577465,3.0579 0.417633803,2.7559 C0.413690141,2.4519 0.653267606,2.2039 0.952985915,2.1999 C2.1104507,2.1869 3.2748169,1.7449 4.61467606,0.8109 C4.83749296,0.6529 5.03861972,0.5759 5.22988732,0.5759 C5.48326761,0.5759 5.71002817,0.7129 5.89833803,0.8459 C7.16819718,1.7409 8.35622535,2.1859 9.53143662,2.1999 L9.58960563,2.1989 C10.7510141,2.1839 11.9143944,1.7419 13.2512958,0.8109 C13.7225634,0.4819 14.0203099,0.4789 14.5369296,0.8469 C15.8097465,1.7419 16.9997465,2.1869 18.1710141,2.1999 L18.2272113,2.1989 C19.3896056,2.1839 20.5539718,1.7419 21.8889014,0.8109 C22.1205915,0.6509 22.3158028,0.5759 22.5060845,0.5759 C22.7643944,0.5759 23.0000282,0.7209 23.176507,0.8469 C24.436507,1.7359 25.6255211,2.1759 26.8066479,2.1909 C27.1063662,2.1949 27.3459437,2.4439 27.342,2.7459 C27.3380563,3.0479 27.096507,3.2889 26.7997465,3.2889 L26.793831,3.2889 C25.3879155,3.2709 24.0027042,2.7669 22.5563662,1.7469 C22.5376338,1.7349 22.5208732,1.7229 22.5060845,1.7129 L22.5021408,1.7159 C20.9828451,2.7769 19.6291831,3.2779 18.2410141,3.2979 L18.172,3.2989 C16.7631268,3.2819 15.3759437,2.7739 13.9177746,1.7469 C13.8990423,1.7349 13.8822817,1.7229 13.867493,1.7129 L13.8645352,1.7149 C12.3432676,2.7769 10.9896056,3.2779 9.60242254,3.2979 L9.53143662,3.2989 C8.11960563,3.2809 6.73340845,2.7739 5.2791831,1.7469 C5.2604507,1.7349 5.24467606,1.7229 5.23087324,1.7139 L5.22890141,1.7149 C3.70270423,2.7779 2.34805634,3.2819 0.964816901,3.2989 L0.958901408,3.2989 Z" id="Fill-13" fill="#FFC20E" mask="url(#mask-6)"></path>
            </g>
            <g id="Group-18" transform="translate(112.394366, 17.343000)">
                <mask id="mask-8" fill="white">
                    <use xlink:href="#path-7"></use>
                </mask>
                <g id="Clip-17"></g>
                <path d="M0.958901408,2.8575 C0.663126761,2.8575 0.421577465,2.6165 0.417633803,2.3145 C0.413690141,2.0115 0.653267606,1.7625 0.952985915,1.7585 C2.1104507,1.7455 3.2748169,1.3025 4.61467606,0.3685 C4.83650704,0.2115 5.03861972,0.1345 5.22988732,0.1345 C5.48129577,0.1345 5.70805634,0.2695 5.8963662,0.4025 C7.16819718,1.3005 8.35721127,1.7445 9.53143662,1.7585 L9.58960563,1.7575 C10.7500282,1.7425 11.9143944,1.3005 13.2512958,0.3685 C13.7176338,0.0425 14.0153803,0.0365 14.5359437,0.4035 C15.8097465,1.3005 16.9997465,1.7455 18.1710141,1.7585 L18.2272113,1.7575 C19.3896056,1.7425 20.5539718,1.3005 21.8889014,0.3685 C22.3631268,0.0395 22.6589014,0.0385 23.1755211,0.4035 C24.436507,1.2935 25.6245352,1.7335 26.8076338,1.7495 C27.1063662,1.7535 27.3459437,2.0025 27.342,2.3055 C27.3380563,2.6065 27.0955211,2.8475 26.7997465,2.8475 L26.7928451,2.8475 C25.3869296,2.8295 24.0017183,2.3245 22.5553803,1.3045 C22.5376338,1.2925 22.5218592,1.2805 22.5070704,1.2715 C22.5070704,1.2715 22.5041127,1.2725 22.5031268,1.2735 C20.9828451,2.3355 19.6281972,2.8375 18.2410141,2.8565 L18.172,2.8575 C16.7641127,2.8405 15.3759437,2.3325 13.9177746,1.3045 C13.8990423,1.2925 13.8822817,1.2805 13.8684789,1.2715 L13.8655211,1.2725 C12.3432676,2.3355 10.9886197,2.8375 9.60242254,2.8565 L9.53143662,2.8575 C8.12059155,2.8395 6.73340845,2.3325 5.2791831,1.3045 C5.2604507,1.2925 5.24467606,1.2815 5.23087324,1.2715 L5.22988732,1.2715 C3.70270423,2.3365 2.34805634,2.8405 0.964816901,2.8575 L0.958901408,2.8575 Z" id="Fill-16" fill="#FFC20E" mask="url(#mask-8)"></path>
            </g>
            <g id="Group-21" transform="translate(112.394366, 13.343000)">
                <mask id="mask-10" fill="white">
                    <use xlink:href="#path-9"></use>
                </mask>
                <g id="Clip-20"></g>
                <path d="M0.958901408,3.4151 C0.663126761,3.4151 0.421577465,3.1741 0.417633803,2.8731 C0.413690141,2.5691 0.653267606,2.3211 0.952985915,2.3171 C2.1104507,2.3031 3.2748169,1.8611 4.61369014,0.9271 C4.84143662,0.7681 5.0376338,0.6931 5.22988732,0.6931 C5.48326761,0.6931 5.71002817,0.8291 5.89833803,0.9611 C7.16819718,1.8581 8.35721127,2.3021 9.53143662,2.3171 L9.58960563,2.3161 C10.7510141,2.3011 11.9143944,1.8591 13.2512958,0.9271 C13.7235493,0.6001 14.0262254,0.5991 14.5369296,0.9621 C15.8097465,1.8581 16.9987606,2.3021 18.172,2.3171 L18.2272113,2.3161 C19.3896056,2.3011 20.5539718,1.8591 21.8889014,0.9271 C22.3670704,0.5971 22.6697465,0.6011 23.176507,0.9631 C24.437493,1.8521 25.626507,2.2921 26.8066479,2.3071 C27.1063662,2.3111 27.3459437,2.5601 27.342,2.8631 C27.3380563,3.1641 27.096507,3.4051 26.7997465,3.4051 L26.793831,3.4051 C25.3898873,3.3881 24.0036901,2.8831 22.5563662,1.8631 C22.5376338,1.8501 22.5208732,1.8391 22.5060845,1.8291 L22.5011549,1.8331 C20.9828451,2.8931 19.6291831,3.3961 18.2410141,3.4141 L18.172,3.4151 C16.7621408,3.3971 15.3749577,2.8901 13.9177746,1.8631 C13.8990423,1.8501 13.8822817,1.8391 13.867493,1.8291 C13.866507,1.8291 13.8655211,1.8311 13.8655211,1.8311 C12.3432676,2.8931 10.9896056,3.3961 9.60242254,3.4141 L9.53143662,3.4151 C8.11960563,3.3961 6.73340845,2.8901 5.2791831,1.8631 C5.2604507,1.8501 5.24467606,1.8391 5.23087324,1.8291 L5.22890141,1.8301 C3.70270423,2.8951 2.34904225,3.3981 0.964816901,3.4151 L0.958901408,3.4151 Z" id="Fill-19" fill="#FFC20E" mask="url(#mask-10)"></path>
            </g>
        </g>
    </g>
</svg>